HIERARCHY
ROOT HipCenter
{
    OFFSET 0.0 0.0 -0.0
    CHANNELS 6 Xposition Yposition Zposition Zrotation Xrotation Yrotation
    JOINT Spine
    {
        OFFSET 0.0 12.037393569946289 0.0
        CHANNELS 3 Zrotation Xrotation Yrotation
        JOINT ShoulderCenter
        {
            OFFSET 0.0 31.42022705078125 0.0
            CHANNELS 3 Zrotation Xrotation Yrotation
            JOINT LeftShoulder
            {
                OFFSET 17.00136947631836 0.0 0.0
                CHANNELS 3 Zrotation Xrotation Yrotation
                JOINT LeftElbow
                {
                    OFFSET 30.429115295410156 0.0 0.0
                    CHANNELS 3 Zrotation Xrotation Yrotation
                    JOINT LeftWrist
                    {
                        OFFSET 26.316957473754883 0.0 0.0
                        CHANNELS 3 Zrotation Xrotation Yrotation
                        JOINT LeftHand
                        {
                            OFFSET 2.5908823013305664 0.0 0.0
                            CHANNELS 3 Zrotation Xrotation Yrotation
                            End Site
                            {
                                OFFSET 1.0363529920578003 0.0 0.0
                            }
                        }
                    }
                }
            }
            JOINT RightShoulder
            {
                OFFSET -17.00136947631836 0.0 0.0
                CHANNELS 3 Zrotation Xrotation Yrotation
                JOINT RightElbow
                {
                    OFFSET -30.429115295410156 0.0 0.0
                    CHANNELS 3 Zrotation Xrotation Yrotation
                    JOINT RightWrist
                    {
                        OFFSET -26.316957473754883 0.0 0.0
                        CHANNELS 3 Zrotation Xrotation Yrotation
                        JOINT RightHand
                        {
                            OFFSET -2.5908823013305664 0.0 0.0
                            CHANNELS 3 Zrotation Xrotation Yrotation
                            End Site
                            {
                                OFFSET -1.0363529920578003 0.0 0.0
                            }
                        }
                    }
                }
            }
            End Site
            {
                OFFSET 0.0 12.56809139251709 0.0
            }
        }
    }
    JOINT LeftHip
    {
        OFFSET 16.76116180419922 0.0 0.0
        CHANNELS 3 Zrotation Xrotation Yrotation
        JOINT LeftKnee
        {
            OFFSET 0.0 -35.00282287597656 0.0
            CHANNELS 3 Zrotation Xrotation Yrotation
            JOINT LeftAnkle
            {
                OFFSET 0.0 -41.172569274902344 0.0
                CHANNELS 3 Zrotation Xrotation Yrotation
                JOINT LeftFoot
                {
                    OFFSET 0.0 -12.274750709533691 0.0
                    CHANNELS 3 Zrotation Xrotation Yrotation
                    End Site
                    {
                        OFFSET 0.0 0.0 4.909900188446045
                    }
                }
            }
        }
    }
    JOINT RightHip
    {
        OFFSET -16.76116180419922 0.0 0.0
        CHANNELS 3 Zrotation Xrotation Yrotation
        JOINT RightKnee
        {
            OFFSET 0.0 -35.00282287597656 0.0
            CHANNELS 3 Zrotation Xrotation Yrotation
            JOINT RightAnkle
            {
                OFFSET 0.0 -41.172569274902344 0.0
                CHANNELS 3 Zrotation Xrotation Yrotation
                JOINT RightFoot
                {
                    OFFSET 0.0 -12.274750709533691 0.0
                    CHANNELS 3 Zrotation Xrotation Yrotation
                    End Site
                    {
                        OFFSET 0.0 0.0 4.909900188446045
                    }
                }
            }
        }
    }
}
MOTION
Frames: 8
Frame Time: 0.03333333333333333
46.599998474121094 -12.700000762939453 136.8000030517578 10.036882087448472 -17.417105515819312 -174.31285435262666 3.3997624651701637 -4.476006435031001 -0.05411182919150817 4.217481859957189e-07 -3.080365668000009e-08 0.4917277712698011 104.33607046038593 -12.437038292480915 -172.8054920196142 -1.5177317890715577e-06 -1.004616100521372e-06 35.38081051048422 -179.99999781463276 -75.69416371595244 -151.53422971083324 8.827812596100317e-32 -6.3611093629270335e-15 1.5902773407317584e-15 -111.08113307879428 2.7256138062471162 -166.38472910750312 -7.400097241552084e-07 -8.25182507519218e-06 -52.91846553785698 179.99999368773433 -33.195911727075 154.2613636094616 7.156248033292914e-15 -9.931289170612858e-32 -1.5902773407317588e-15 4.935640490518785 -30.263236030047118 -4.0465937401894205 1.704015717071101 34.74543279720901 -25.988817163136343 87.2361376496617 -57.68663463961542 123.82100943452171 -2.648343778830095e-31 6.3611093629270335e-15 4.770832022195275e-15 3.0061624362145216 -47.02483099191855 -10.108679198578372 -18.760778243139207 28.82043440846996 38.29826273188917 -64.30224316687936 -67.36243345762169 -114.3850374725583 -1.5902773407317584e-15 6.3611093629270335e-15 8.827812596100317e-32
47.099998474121094 -12.700000762939453 135.59999084472656 9.050717442190413 -17.464446849376625 -174.12817309153937 3.3335012516609344 -4.333690553245613 -0.04428052317646438 3.991654761454459e-08 7.682869773790462e-07 0.6624905046061471 103.96459841331318 -14.553501971015013 -173.06117055330643 -1.9242958769413427e-06 1.1240337431606187e-06 35.78160842897332 -179.99999428965916 -77.16652157411718 -152.43508083649684 -3.1805546814635168e-15 -4.4139062980501586e-32 1.5902773407317584e-15 -111.6264746320697 3.0466199611442306 -166.78762423124755 2.4222524220314627e-06 -2.2518498984568956e-06 -54.71644888250884 -179.99999522724596 -34.01715096365177 153.69827665202723 -9.541664044390549e-15 -1.3241718894150476e-31 1.5902773407317582e-15 4.458217440304242 -28.58907071766364 -5.361681466117834 0.5987029603077902 33.00359772102365 -23.93132631691892 87.87457452259353 -58.451841431421144 123.96811974215339 2.648343778830095e-31 6.3611093629270335e-15 -4.770832022195275e-15 0.2796387316444815 -46.23495251518538 -11.714034418011224 -17.480035670464396 24.50009949936146 34.61269789626166 -63.75756924646862 -69.58616290971206 -116.4710377774482 0.0 0.0 1.5902773407317584e-15
47.70000076293945 -12.800000190734863 134.3000030517578 7.989338118460509 -17.365765549636627 -173.9765175288575 3.394663406757375 -4.053403394482753 -0.02097480609192037 -3.0516218712263635e-07 7.906491090132121e-07 0.8740755529250336 103.56843616223873 -16.604108961475163 -173.32036700492918 -7.672170032141321e-07 -6.670462850261312e-07 36.09567817167227 -179.9999919546758 -72.07979946747339 -151.47372075452716 0.0 0.0 3.1805546814635168e-15 -111.90398284497941 3.2056999851895696 -167.40366260988392 -6.3713840546306606e-06 3.7786104433389335e-06 -55.606594339821605 179.9999978023758 -36.78294800822173 154.06152446152336 -1.5902773407317584e-15 -3.1805546814635168e-15 -1.5902773407317584e-15 3.922926608422149 -26.922387505286387 -6.099842185497002 -0.06082992814354091 31.63952850446482 -22.420391535138023 86.974169752585 -58.891338570455304 122.63065673515814 0.0 0.0 -3.1805546814635168e-15 -1.9701186821855798 -45.36114331917442 -13.342578547245544 -16.66876407115439 21.375083141061893 31.641100815485757 -60.730688181170535 -72.64352295918519 -115.01229252773308 0.0 0.0 -3.1805546814635168e-15
48.5 -13.0 132.89999389648438 7.001275671413866 -17.40276350890797 -174.0713993517753 3.5481263368084117 -3.729680547972682 0.011070474188742995 2.61156369089451e-07 -3.8270878393671695e-07 1.0848170621008382 103.45269098370589 -18.444054287498854 -173.82625687645344 1.8918571677549874e-06 4.957596025012102e-07 36.53320604670412 179.99999889815592 -76.32179652821378 -151.74117190356964 -3.1805546814635168e-15 -6.3611093629270335e-15 -4.770832022195275e-15 -111.88607905149023 2.6329374004059702 -168.71615540725958 -1.7899489811999272e-06 2.4638342192129764e-06 -56.26762633481505 179.99999685632352 -37.06095876003986 151.70109577469412 1.5902773407317584e-15 -6.620859447075238e-32 -4.770832022195275e-15 3.7517469167515367 -25.582169337239883 -6.6508339729496 -0.6607409928978537 31.037558804548357 -21.73626377996393 87.48712390658301 -59.03508257974452 122.98373665997818 -3.1805546814635168e-15 -6.3611093629270335e-15 1.5902773407317582e-15 -3.249437124693487 -44.912167169785775 -14.2974804717247 -16.1055804128215 20.020755324361705 30.22003090483822 -61.14597925903491 -74.41642413690103 -116.08086188375094 -3.1805546814635168e-15 -6.3611093629270335e-15 -1.7655625192200634e-31
49.5 -13.40000057220459 131.39999389648438 6.505622302339693 -17.419519854803962 -174.03314589892295 4.351996979372541 -3.4509785187100412 0.04858763467104472 1.308386885192048e-07 -2.694550509212532e-07 1.0892610947901997 103.03217547577331 -19.427085988193756 -174.43186891378252 -1.9584662311272214e-06 2.176719005704422e-06 36.76696210930813 179.99999581130115 -78.9700872992301 -150.78242475213307 0.0 0.0 3.1805546814635164e-15 -111.37620855896287 1.8772967519275678 -170.51778379723282 -1.0011522402237148e-06 6.391115399867479e-07 -56.47467434066012 -179.99999925160475 -41.0501620924141 150.63250568845694 1.5902773407317584e-15 -3.1805546814635168e-15 3.1805546814635168e-15 3.8377481653279206 -24.586053251589732 -7.050220628630924 -0.7992433357772343 31.089007764022405 -21.308337791547196 89.43141565284802 -58.80562591576399 124.55892387680053 -8.827812596100317e-32 6.3611093629270335e-15 1.5902773407317584e-15 -3.1835928212938702 -44.73754182327391 -14.49016406168768 -15.932449907025797 20.389384637220893 30.32812940676133 -58.4062438164959 -73.82773544964597 -112.86674211211397 0.0 0.0 6.3611093629270335e-15
50.70000457763672 -13.600000381469727 129.90000915527344 5.511507577788888 -17.903671943007073 -173.74266047224896 4.461680357483549 -3.2170036587269304 0.09193166477878618 4.673383048345831e-08 4.467603039046202e-07 1.0708899836846535 102.79329498052374 -19.591289562892168 -174.82788447831635 4.980940115182478e-07 8.125069305607739e-07 37.152405377747286 179.9999790150522 -80.31736148879905 -151.5407536611055 3.1805546814635168e-15 0.0 0.0 -110.62076251833149 1.0765305259411002 -172.50656985710157 -2.897645821306507e-06 1.943272680266113e-06 -56.20618010064164 179.99999961203545 -38.72656381422932 149.93261890667046 3.1805546814635164e-15 4.4139062980501586e-32 1.5902773407317582e-15 3.7962674088748725 -23.921776459549967 -7.6864358724989446 -1.2713989972908821 30.71452039743266 -21.27461671879719 89.60103013199326 -58.174625060284754 125.28312741127003 0.0 0.0 -2.3854160110976368e-15 -3.456050804955195 -45.239839806725584 -14.43984487334029 -16.454930859304596 21.810848245436894 32.58721212668478 -51.37533399727511 -71.55770831323105 -105.52285973955435 -3.531125038440127e-31 -6.3611093629270335e-15 -6.3611093629270335e-15
51.79999923706055 -13.799999237060547 128.5 3.5137542107224484 -18.402644087071202 -173.73192606898894 3.838147338056566 -2.5728912543794205 0.1421528775196254 7.469175849993695e-08 -1.3414399124640845e-08 0.8832354430686654 102.7998249087151 -20.005522511605168 -175.06894166310704 -2.672102852524259e-06 2.3202932640901156e-06 37.69979724983913 179.99999741017066 -79.33977090501674 -153.43445408893115 -3.1805546814635164e-15 -8.827812596100317e-32 3.1805546814635164e-15 -109.72148978551517 0.36946915241209444 -174.8331761618647 2.8213490211765257e-06 1.3822570162319992e-06 -55.44044644746763 -179.99999469641463 -37.9914026946985 152.2985252264724 -1.5902773407317584e-15 0.0 0.0 2.5435068394588822 -23.801078592774633 -8.0319975463531 -1.3675347495118164 31.571323629366727 -22.07007616846475 91.12395982309869 -56.79936474233488 127.35564468975673 0.0 0.0 0.0 -4.6523419929346534 -46.37010167281899 -13.878346492505818 -17.196178520590948 24.58549549213725 35.187342130739374 -51.34997064731006 -67.40524310621434 -103.93355486188766 0.0 0.0 3.1805546814635164e-15
52.79999923706055 -14.0 127.19999694824219 1.5207850314523153 -19.93594112027515 -174.20830891248804 3.554429930164145 -2.5261651098758953 0.25114996181995536 6.202229205674422e-08 1.8415935943174651e-06 0.9686365668482588 101.84882226990565 -18.69070594278278 -175.59133769202901 2.2575563083225147e-06 -3.758006796160675e-07 38.90095205455962 -179.99997593338844 -77.87645969870191 -151.17849426551626 -3.1805546814635168e-15 1.7655625192200634e-31 -6.3611093629270335e-15 -109.16434450715505 -0.6729164784117377 -177.41547829297858 1.7854975058584533e-06 7.961119584175175e-07 -54.63842039083166 179.99999973459447 -42.70446563805735 152.91108030044595 1.5902773407317582e-15 -3.1805546814635168e-15 -7.951386703658792e-15 1.2762528567854443 -26.22037552957876 -6.014599373360002 0.05935033364050406 34.99169489054173 -26.5155741318605 91.99310488659584 -55.128760156060544 129.9761308940286 3.1805546814635164e-15 6.3611093629270335e-15 5.565970692561154e-15 -6.363370534132142 -48.91117736000658 -14.7786512218279 -17.895221182649795 27.312686576452062 37.58333140627785 -51.17608427908038 -65.27184255206406 -101.99329595112714 0.0 0.0 -1.5902773407317588e-15
